# xmcd
# 
# Track frame offsets:
#     150
#     16768
#     32606
#     53696
# 
# Disc length: 911
# 
# Revision: 0
# Processed by: cddbd v1.5.2PL0 Copyright (c) Steve Scherf et al.
# Submitted via: fre:ac v1.0.17
# 
DISCID=21038d04
DTITLE=Clay Pigeon - Psychstomp EP
DYEAR=1998
DGENRE=Hardcore
TTITLE0=Backthen
TTITLE1=Bitter To The Rim
TTITLE2=Kings New Suit
TTITLE3=UnWelcome
EXTD=
EXTT0=
EXTT1=
EXTT2=
EXTT3=
PLAYORDER=
